HIERARCHY
ROOT joint_Root
{
	OFFSET 0.0 0.0 0.0
	CHANNELS 6 Xposition Yposition Zposition Zrotation Xrotation Yrotation 
	JOINT Hips
	{
		OFFSET -17.1583 93.1646 452.98
		CHANNELS 6 Xposition Yposition Zposition Zrotation Xrotation Yrotation 
		JOINT Spine
		{
			OFFSET 15.7357 0.0 0.0
			CHANNELS 6 Xposition Yposition Zposition Zrotation Xrotation Yrotation 
			JOINT Chest
			{
				OFFSET 8.98455 -0.406207 0.0
				CHANNELS 6 Xposition Yposition Zposition Zrotation Xrotation Yrotation 
				JOINT Neck
				{
					OFFSET 16.3773 0.0 0.0
					CHANNELS 6 Xposition Yposition Zposition Zrotation Xrotation Yrotation 
					JOINT Head
					{
						OFFSET 6.45672 0.0 0.0
						CHANNELS 6 Xposition Yposition Zposition Zrotation Xrotation Yrotation 
						End Site
						{
							OFFSET 0.0 0.0 0.0
						}
					}
				}
				JOINT Shoulder_L
				{
					OFFSET 12.9942 -0.242716 4.98039
					CHANNELS 6 Xposition Yposition Zposition Zrotation Xrotation Yrotation 
					JOINT UpperArm_L
					{
						OFFSET 5.34809 0.0 0.0
						CHANNELS 6 Xposition Yposition Zposition Zrotation Xrotation Yrotation 
						JOINT LowerArm_L
						{
							OFFSET 24.3286 1.87007e-05 0.0
							CHANNELS 6 Xposition Yposition Zposition Zrotation Xrotation Yrotation 
							JOINT Hand_L
							{
								OFFSET 22.2916 0.0 0.0
								CHANNELS 6 Xposition Yposition Zposition Zrotation Xrotation Yrotation 
								End Site
								{
									OFFSET 0.0 0.0 0.0
								}
							}
						}
					}
				}
				JOINT Shoulder_R
				{
					OFFSET 12.9945 -0.242716 -4.98039
					CHANNELS 6 Xposition Yposition Zposition Zrotation Xrotation Yrotation 
					JOINT UpperArm_R
					{
						OFFSET -5.34813 0.0 0.0
						CHANNELS 6 Xposition Yposition Zposition Zrotation Xrotation Yrotation 
						JOINT LowerArm_R
						{
							OFFSET -24.3289 0.000322201 0.0
							CHANNELS 6 Xposition Yposition Zposition Zrotation Xrotation Yrotation 
							JOINT Hand_R
							{
								OFFSET -22.2915 -0.000108084 0.0
								CHANNELS 6 Xposition Yposition Zposition Zrotation Xrotation Yrotation 
								End Site
								{
									OFFSET 0.0 0.0 0.0
								}
							}
						}
					}
				}
			}
		}
		JOINT UpperLeg_L
		{
			OFFSET -2.19248 -6.46944 0.0
			CHANNELS 6 Xposition Yposition Zposition Zrotation Xrotation Yrotation 
			JOINT LowerLeg_L
			{
				OFFSET 39.0811 0.0 -1.23785e-05
				CHANNELS 6 Xposition Yposition Zposition Zrotation Xrotation Yrotation 
				JOINT Foot_L
				{
					OFFSET 40.9854 0.0 -1.26872e-05
					CHANNELS 6 Xposition Yposition Zposition Zrotation Xrotation Yrotation 
					JOINT Toes_L
					{
						OFFSET 11.7543 0.0 0.0
						CHANNELS 6 Xposition Yposition Zposition Zrotation Xrotation Yrotation 
						End Site
						{
							OFFSET 0.0 0.0 0.0
						}
					}
				}
			}
		}
		JOINT UpperLeg_R
		{
			OFFSET -2.19251 6.46944 0.0
			CHANNELS 6 Xposition Yposition Zposition Zrotation Xrotation Yrotation 
			JOINT LowerLeg_R
			{
				OFFSET -39.0811 -0.00228153 -0.0401928
				CHANNELS 6 Xposition Yposition Zposition Zrotation Xrotation Yrotation 
				JOINT Foot_R
				{
					OFFSET -40.9854 0.0 0.0
					CHANNELS 6 Xposition Yposition Zposition Zrotation Xrotation Yrotation 
					JOINT Toes_R
					{
						OFFSET -11.7543 0.0 0.0
						CHANNELS 6 Xposition Yposition Zposition Zrotation Xrotation Yrotation 
						End Site
						{
							OFFSET 0.0 0.0 0.0
						}
					}
				}
			}
		}
	}
}
MOTION
Frames:	6
Frame Time:	0.0333333
0.000000 0.000000 0.000000 0.000000 0.000000 -0.000000 -1.148430 93.064000 -3.634920 87.077000 -1.441430 2.273330 15.735700 0.000005 -0.000001 83.066600 87.378400 -81.233900 8.984550 -0.406207 -0.000000 -2.545840 -0.797575 3.647650 16.377300 -0.000001 -0.000001 6.355530 3.681620 -0.934461 6.456720 -0.000001 -0.000000 3.452870 5.062090 -4.950860 12.994200 -0.242716 4.980390 -92.819400 8.508670 -71.590000 5.348090 -0.000007 -0.000001 -73.473700 27.477100 1.489490 24.328600 0.000019 0.000005 12.856900 28.850800 -25.314200 22.291600 -0.000001 0.000005 -3.266730 5.030370 6.666650 12.994500 -0.242716 -4.980390 88.503200 4.745450 -72.471900 -5.348130 -0.000001 -0.000004 -70.831100 25.142500 -2.950850 -24.328900 0.000322 -0.000009 2.792830 7.788820 -19.803800 -22.291500 -0.000108 -0.000004 1.889190 5.289330 0.369674 -2.192480 -6.469440 -0.000000 -176.371000 0.094802 -4.056280 39.081100 -0.000007 -0.000012 0.188548 -0.498718 20.710200 40.985400 -0.000006 -0.000013 1.791460 7.619410 -69.829700 11.754300 -0.000000 0.000003 0.000422 0.160185 -10.080200 -2.192510 6.469440 -0.000001 -174.599000 4.668010 -179.772000 -39.081100 -0.002282 -0.040193 0.056867 -0.217379 13.835100 -40.985400 0.000008 0.000006 1.439640 2.727260 -67.965700 -11.754300 -0.000006 -0.000006 -0.012808 0.291209 -4.736120
0.000000 0.000000 0.000000 0.000000 0.000000 -0.000000 -1.200830 93.084600 -3.707270 87.063700 -1.372810 2.124750 15.735700 0.000005 -0.000001 82.679100 87.372100 -80.853500 8.984550 -0.406207 -0.000000 -2.537370 -0.833559 3.632670 16.377300 -0.000001 -0.000001 6.205570 3.654930 -0.869863 6.456720 -0.000001 -0.000000 3.197800 5.052380 -4.797130 12.994200 -0.242716 4.980390 -92.785500 8.431360 -71.642900 5.348090 -0.000007 -0.000001 -73.501100 27.498800 1.455100 24.328600 0.000019 0.000005 12.884400 28.798800 -25.399800 22.291600 -0.000001 0.000005 -3.204320 5.028340 6.710770 12.994500 -0.242716 -4.980390 88.492400 4.754440 -72.383300 -5.348130 -0.000001 -0.000004 -70.595700 23.451900 -2.962280 -24.328900 0.000322 -0.000009 2.967060 7.941120 -20.571000 -22.291500 -0.000108 -0.000004 1.661090 5.276880 0.711516 -2.192480 -6.469440 -0.000000 -176.332000 0.147636 -4.215260 39.081100 -0.000007 -0.000012 0.188024 -0.499648 20.622300 40.985400 -0.000006 -0.000013 1.742830 7.602710 -69.805700 11.754300 -0.000000 0.000003 0.000469 0.159311 -10.115600 -2.192510 6.469440 -0.000001 -174.564000 4.680260 -179.931000 -39.081100 -0.002282 -0.040193 0.053417 -0.204764 13.744500 -40.985400 0.000008 0.000006 1.198140 2.758400 -67.849900 -11.754300 -0.000006 -0.000006 -0.013187 0.293752 -4.631880
0.000000 0.000000 0.000000 0.000000 0.000000 -0.000000 -1.250860 93.094600 -3.788220 87.056700 -1.325720 1.977760 15.735700 0.000005 -0.000001 82.410200 87.364000 -80.595600 8.984550 -0.406207 -0.000000 -2.524170 -0.858959 3.610290 16.377300 -0.000001 -0.000001 6.032350 3.626260 -0.761616 6.456720 -0.000001 -0.000000 2.847770 5.084460 -4.625610 12.994200 -0.242716 4.980390 -92.770500 8.381760 -71.634900 5.348090 -0.000007 -0.000001 -73.449200 27.635400 1.370080 24.328600 0.000019 0.000005 12.957200 28.870500 -25.478900 22.291600 -0.000001 0.000005 -3.232030 5.033180 6.605570 12.994500 -0.242716 -4.980390 88.506200 4.680090 -72.276000 -5.348130 -0.000001 -0.000004 -70.435900 21.407700 -2.778370 -24.328900 0.000322 -0.000009 2.858180 7.119170 -21.950300 -22.291500 -0.000108 -0.000004 1.727740 5.257070 1.245090 -2.192480 -6.469440 -0.000000 -176.272000 0.194880 -4.417290 39.081100 -0.000007 -0.000012 0.185910 -0.494757 20.594500 40.985400 -0.000006 -0.000013 1.694590 7.664640 -69.726300 11.754300 -0.000000 0.000003 0.000408 0.160444 -10.069600 -2.192510 6.469440 -0.000001 -174.508000 4.715190 179.890000 -39.081100 -0.002282 -0.040193 0.052702 -0.202749 13.685200 -40.985400 0.000008 0.000006 1.187420 2.750710 -67.760000 -11.754300 -0.000006 -0.000006 -0.013125 0.293333 -4.649050
0.000000 0.000000 0.000000 0.000000 0.000000 -0.000000 -1.305880 93.113600 -3.865550 87.019500 -1.284100 1.863080 15.735700 0.000005 -0.000001 81.970800 87.342000 -80.159700 8.984550 -0.406207 -0.000000 -2.485500 -0.904214 3.602520 16.377300 -0.000001 -0.000001 5.815520 3.573390 -0.599379 6.456720 -0.000001 -0.000000 2.531610 5.109900 -4.450850 12.994200 -0.242716 4.980390 -92.754000 8.344120 -71.661100 5.348090 -0.000007 -0.000001 -73.376800 27.755600 1.331960 24.328600 0.000019 0.000005 12.921100 28.663700 -25.561000 22.291600 -0.000001 0.000005 -3.303400 5.030740 6.658720 12.994500 -0.242716 -4.980390 88.557100 4.518950 -72.270900 -5.348130 -0.000001 -0.000004 -70.276600 19.456800 -2.440350 -24.328900 0.000322 -0.000009 2.432260 5.492830 -23.941400 -22.291500 -0.000108 -0.000004 1.622130 5.240080 1.693660 -2.192480 -6.469440 -0.000000 -176.201000 0.186084 -4.557860 39.081100 -0.000007 -0.000012 0.185721 -0.495975 20.529100 40.985400 -0.000006 -0.000013 1.648810 7.673690 -69.671600 11.754300 -0.000000 0.000003 0.000430 0.160050 -10.085600 -2.192510 6.469440 -0.000001 -174.443000 4.747000 179.798000 -39.081100 -0.002282 -0.040193 0.048926 -0.189611 13.520500 -40.985400 0.000008 0.000006 1.050360 2.779100 -67.581100 -11.754300 -0.000006 -0.000006 -0.013103 0.293191 -4.654860
0.000000 0.000000 0.000000 0.000000 0.000000 -0.000000 -1.357300 93.122500 -3.938850 87.014800 -1.286600 1.732850 15.735700 0.000005 -0.000001 81.940700 87.321000 -80.148700 8.984550 -0.406207 -0.000000 -2.444300 -0.910536 3.564350 16.377300 -0.000001 -0.000001 5.543210 3.489160 -0.365732 6.456720 -0.000001 -0.000000 2.171500 5.146040 -4.287800 12.994200 -0.242716 4.980390 -92.739700 8.300550 -71.660900 5.348090 -0.000007 -0.000001 -73.288800 27.786800 1.217770 24.328600 0.000019 0.000005 12.926900 28.652500 -25.579400 22.291600 -0.000001 0.000005 -3.270300 5.031240 6.647880 12.994500 -0.242716 -4.980390 88.623900 4.299100 -72.231500 -5.348130 -0.000001 -0.000004 -70.041800 17.663400 -1.945030 -24.328900 0.000322 -0.000009 2.285380 4.504440 -26.949600 -22.291500 -0.000108 -0.000004 1.188030 5.218880 2.241670 -2.192480 -6.469440 -0.000000 -176.149000 0.206008 -4.724640 39.081100 -0.000007 -0.000012 0.184575 -0.493749 20.497300 40.985400 -0.000006 -0.000013 1.600580 7.711370 -69.607900 11.754300 -0.000000 0.000003 0.000521 0.158341 -10.155000 -2.192510 6.469440 -0.000001 -174.394000 4.745320 179.645000 -39.081100 -0.002282 -0.040193 0.048337 -0.188079 13.457000 -40.985400 0.000008 0.000006 1.087500 2.829960 -67.493700 -11.754300 -0.000006 -0.000006 -0.012796 0.291127 -4.739450
0.000000 0.000000 0.000000 0.000000 0.000000 -0.000000 -1.421330 93.135300 -4.025200 86.996800 -1.208600 1.547140 15.735700 0.000005 -0.000001 81.127400 87.315600 -79.347100 8.984550 -0.406207 -0.000000 -2.443760 -0.986355 3.539420 16.377300 -0.000001 -0.000001 5.322470 3.429010 -0.161312 6.456720 -0.000001 -0.000000 1.715650 5.154240 -3.994150 12.994200 -0.242716 4.980390 -92.721200 8.259170 -71.692400 5.348090 -0.000007 -0.000001 -73.232200 27.686900 1.147250 24.328600 0.000019 0.000005 13.010400 28.777000 -25.639700 22.291600 -0.000001 0.000005 -3.289650 5.031560 6.640810 12.994500 -0.242716 -4.980390 88.684200 4.101150 -72.194300 -5.348130 -0.000001 -0.000004 -69.661500 15.973600 -1.292950 -24.328900 0.000322 -0.000009 2.301130 3.849820 -30.913800 -22.291500 -0.000108 -0.000004 0.706876 5.194280 2.862660 -2.192480 -6.469440 -0.000000 -176.094000 0.272516 -4.960740 39.081100 -0.000007 -0.000012 0.185372 -0.496713 20.465800 40.985400 -0.000006 -0.000013 1.541160 7.679560 -69.565700 11.754300 -0.000000 0.000003 0.000460 0.159478 -10.108900 -2.192510 6.469440 -0.000001 -174.309000 4.811550 179.440000 -39.081100 -0.002282 -0.040193 0.047144 -0.184539 13.355100 -40.985400 0.000008 0.000006 1.046680 2.773650 -67.388700 -11.754300 -0.000006 -0.000006 -0.012989 0.292424 -4.686310
